<svg xmlns="http://www.w3.org/2000/svg" viewBox="0 0 128 128" fill="none">
  <title>Argue</title>
  <rect width="128" height="128" rx="32" fill="#10182F"/>
  <path d="M25 37.5C25 29.5 31.5 23 39.5 23h25c8 0 14.5 6.5 14.5 14.5v14c0 8-6.5 14.5-14.5 14.5H50L36.5 78V66h-10c-8 0-14.5-6.5-14.5-14.5v-14Z" fill="#5B7CFA"/>
  <path d="M103 90.5c0 8-6.5 14.5-14.5 14.5h-25C55.5 105 49 98.5 49 90.5v-14C49 68.5 55.5 62 63.5 62H78l13.5-12v12h10c8 0 14.5 6.5 14.5 14.5v14Z" fill="#F6B35F"/>
  <path d="m47.5 47 16.5 31 16.5-31" stroke="#FFFDF8" stroke-linecap="round" stroke-linejoin="round" stroke-width="8"/>
  <path d="M54.5 61h19" stroke="#FFFDF8" stroke-linecap="round" stroke-width="8"/>
</svg>
